HIERARCHY
ROOT Root
{
  OFFSET 0.0 0.0 0.0
  CHANNELS 6 Xposition Yposition Zposition Zrotation Yrotation Xrotation
  JOINT Hips
  {
    OFFSET 0.0 100.0 0.0
    CHANNELS 6 Xposition Yposition Zposition Zrotation Yrotation Xrotation
    JOINT Spine1
    {
      OFFSET -0.013727 5.003763 -0.053727
      CHANNELS 3 Zrotation Yrotation Xrotation
      JOINT Spine2
      {
        OFFSET -0.0 7.125301 -0.029825
        CHANNELS 3 Zrotation Yrotation Xrotation
        JOINT Chest
        {
          OFFSET -1e-06 7.550063 -0.815971
          CHANNELS 3 Zrotation Yrotation Xrotation
          JOINT Neck1
          {
            OFFSET -0.181677 26.311295 -0.553348
            CHANNELS 3 Zrotation Yrotation Xrotation
            JOINT Neck2
            {
              OFFSET -3e-06 7.709397 2.302585
              CHANNELS 3 Zrotation Yrotation Xrotation
              JOINT Head
              {
                OFFSET -5e-06 6.128916 1.953709
                CHANNELS 3 Zrotation Yrotation Xrotation
                JOINT HeadEnd
                {
                  OFFSET 0.003598 16.065403 -1.835379
                  CHANNELS 3 Zrotation Yrotation Xrotation
                }
                JOINT Jaw
                {
                  OFFSET 0.002637 0.475592 3.094941
                  CHANNELS 3 Zrotation Yrotation Xrotation
                }
                JOINT LeftEye
                {
                  OFFSET 3.206381 5.380205 7.586883
                  CHANNELS 3 Zrotation Yrotation Xrotation
                }
                JOINT RightEye
                {
                  OFFSET -3.22244 5.361869 7.558234
                  CHANNELS 3 Zrotation Yrotation Xrotation
                }
              }
            }
          }
          JOINT LeftShoulder
          {
            OFFSET 1.621652 23.237164 5.113413
            CHANNELS 3 Zrotation Yrotation Xrotation
            JOINT LeftArm
            {
              OFFSET 14.919846 2e-06 -5.502326
              CHANNELS 3 Zrotation Yrotation Xrotation
              JOINT LeftForeArm
              {
                OFFSET 28.739307 0.0 -0.002588
                CHANNELS 3 Zrotation Yrotation Xrotation
                JOINT LeftHand
                {
                  OFFSET 27.093981 -1e-06 0.002609
                  CHANNELS 3 Zrotation Yrotation Xrotation
                  JOINT LeftHandThumb1
                  {
                    OFFSET 2.276482 -1.392045 3.191413
                    CHANNELS 3 Zrotation Yrotation Xrotation
                    JOINT LeftHandThumb2
                    {
                      OFFSET 4.012836 -1.828127 1.641654
                      CHANNELS 3 Zrotation Yrotation Xrotation
                      JOINT LeftHandThumb3
                      {
                        OFFSET 2.798515 0.0 -3e-06
                        CHANNELS 3 Zrotation Yrotation Xrotation
                        JOINT LeftHandThumbEnd
                        {
                          OFFSET 3.180793 -4e-06 4e-06
                          CHANNELS 3 Zrotation Yrotation Xrotation
                        }
                      }
                    }
                  }
                  JOINT LeftHandIndex1
                  {
                    OFFSET 3.247555 -0.531998 2.296169
                    CHANNELS 3 Zrotation Yrotation Xrotation
                    JOINT LeftHandIndex2
                    {
                      OFFSET 6.364578 0.01206 0.1786
                      CHANNELS 3 Zrotation Yrotation Xrotation
                      JOINT LeftHandIndex3
                      {
                        OFFSET 3.662364 0.0 0.0
                        CHANNELS 3 Zrotation Yrotation Xrotation
                        JOINT LeftHandIndex4
                        {
                          OFFSET 2.329242 4e-06 4e-06
                          CHANNELS 3 Zrotation Yrotation Xrotation
                          JOINT LeftHandIndexEnd
                          {
                            OFFSET 2.759615 -0.180537 -0.113024
                            CHANNELS 3 Zrotation Yrotation Xrotation
                          }
                        }
                      }
                    }
                  }
                  JOINT LeftHandMiddle1
                  {
                    OFFSET 3.163495 0.240981 1.000332
                    CHANNELS 3 Zrotation Yrotation Xrotation
                    JOINT LeftHandMiddle2
                    {
                      OFFSET 6.19078 -0.259278 -1.002548
                      CHANNELS 3 Zrotation Yrotation Xrotation
                      JOINT LeftHandMiddle3
                      {
                        OFFSET 4.35652 -4e-06 -1e-06
                        CHANNELS 3 Zrotation Yrotation Xrotation
                        JOINT LeftHandMiddle4
                        {
                          OFFSET 2.996877 -8e-06 0.0
                          CHANNELS 3 Zrotation Yrotation Xrotation
                          JOINT LeftHandMiddleEnd
                          {
                            OFFSET 2.304287 -0.294569 -0.031741
                            CHANNELS 3 Zrotation Yrotation Xrotation
                          }
                        }
                      }
                    }
                  }
                  JOINT LeftHandRing1
                  {
                    OFFSET 2.882643 -0.053652 -0.322543
                    CHANNELS 3 Zrotation Yrotation Xrotation
                    JOINT LeftHandRing2
                    {
                      OFFSET 5.854541 -0.486202 -1.373841
                      CHANNELS 3 Zrotation Yrotation Xrotation
                      JOINT LeftHandRing3
                      {
                        OFFSET 4.350578 0.0 3e-06
                        CHANNELS 3 Zrotation Yrotation Xrotation
                        JOINT LeftHandRing4
                        {
                          OFFSET 2.651321 7e-06 2e-06
                          CHANNELS 3 Zrotation Yrotation Xrotation
                          JOINT LeftHandRingEnd
                          {
                            OFFSET 1.936105 0.077687 -7.1e-05
                            CHANNELS 3 Zrotation Yrotation Xrotation
                          }
                        }
                      }
                    }
                  }
                  JOINT LeftHandPinky1
                  {
                    OFFSET 2.8655 -0.310005 -1.600378
                    CHANNELS 3 Zrotation Yrotation Xrotation
                    JOINT LeftHandPinky2
                    {
                      OFFSET 5.087849 -1.331141 -1.77123
                      CHANNELS 3 Zrotation Yrotation Xrotation
                      JOINT LeftHandPinky3
                      {
                        OFFSET 3.070974 4e-06 0.0
                        CHANNELS 3 Zrotation Yrotation Xrotation
                        JOINT LeftHandPinky4
                        {
                          OFFSET 1.549672 0.0 1e-06
                          CHANNELS 3 Zrotation Yrotation Xrotation
                          JOINT LeftHandPinkyEnd
                          {
                            OFFSET 1.944893 -0.157802 0.057219
                            CHANNELS 3 Zrotation Yrotation Xrotation
                          }
                        }
                      }
                    }
                  }
                }
              }
            }
          }
          JOINT RightShoulder
          {
            OFFSET -1.380118 23.180309 5.214158
            CHANNELS 3 Zrotation Yrotation Xrotation
            JOINT RightArm
            {
              OFFSET -15.037196 1.2e-05 -5.545604
              CHANNELS 3 Zrotation Yrotation Xrotation
              JOINT RightForeArm
              {
                OFFSET -28.736639 2e-06 -0.002597
                CHANNELS 3 Zrotation Yrotation Xrotation
                JOINT RightHand
                {
                  OFFSET -27.133619 -0.0 0.002613
                  CHANNELS 3 Zrotation Yrotation Xrotation
                  JOINT RightHandThumb1
                  {
                    OFFSET -2.274032 -1.383988 3.163127
                    CHANNELS 3 Zrotation Yrotation Xrotation
                    JOINT RightHandThumb2
                    {
                      OFFSET -4.011429 -1.827466 1.640914
                      CHANNELS 3 Zrotation Yrotation Xrotation
                      JOINT RightHandThumb3
                      {
                        OFFSET -2.794935 -4e-06 -3e-06
                        CHANNELS 3 Zrotation Yrotation Xrotation
                        JOINT RightHandThumbEnd
                        {
                          OFFSET -3.183852 4e-06 1e-06
                          CHANNELS 3 Zrotation Yrotation Xrotation
                        }
                      }
                    }
                  }
                  JOINT RightHandIndex1
                  {
                    OFFSET -3.253266 -0.520057 2.282866
                    CHANNELS 3 Zrotation Yrotation Xrotation
                    JOINT RightHandIndex2
                    {
                      OFFSET -6.341917 0.012471 0.178266
                      CHANNELS 3 Zrotation Yrotation Xrotation
                      JOINT RightHandIndex3
                      {
                        OFFSET -3.654871 -8e-06 -0.0
                        CHANNELS 3 Zrotation Yrotation Xrotation
                        JOINT RightHandIndex4
                        {
                          OFFSET -2.327586 0.0 1e-06
                          CHANNELS 3 Zrotation Yrotation Xrotation
                          JOINT RightHandIndexEnd
                          {
                            OFFSET -2.76179 -0.180656 -0.113078
                            CHANNELS 3 Zrotation Yrotation Xrotation
                          }
                        }
                      }
                    }
                  }
                  JOINT RightHandMiddle1
                  {
                    OFFSET -3.168106 0.246593 1.00103
                    CHANNELS 3 Zrotation Yrotation Xrotation
                    JOINT RightHandMiddle2
                    {
                      OFFSET -6.180828 -0.258836 -1.000895
                      CHANNELS 3 Zrotation Yrotation Xrotation
                      JOINT RightHandMiddle3
                      {
                        OFFSET -4.348901 0.0 -0.0
                        CHANNELS 3 Zrotation Yrotation Xrotation
                        JOINT RightHandMiddle4
                        {
                          OFFSET -3.00024 -4e-06 -2e-06
                          CHANNELS 3 Zrotation Yrotation Xrotation
                          JOINT RightHandMiddleEnd
                          {
                            OFFSET -2.30252 -0.29437 -0.031706
                            CHANNELS 3 Zrotation Yrotation Xrotation
                          }
                        }
                      }
                    }
                  }
                  JOINT RightHandRing1
                  {
                    OFFSET -2.88569 -0.067952 -0.308858
                    CHANNELS 3 Zrotation Yrotation Xrotation
                    JOINT RightHandRing2
                    {
                      OFFSET -5.854198 -0.48613 -1.373731
                      CHANNELS 3 Zrotation Yrotation Xrotation
                      JOINT RightHandRing3
                      {
                        OFFSET -4.33881 -4e-06 -0.0
                        CHANNELS 3 Zrotation Yrotation Xrotation
                        JOINT RightHandRing4
                        {
                          OFFSET -2.654903 -4e-06 4e-06
                          CHANNELS 3 Zrotation Yrotation Xrotation
                          JOINT RightHandRingEnd
                          {
                            OFFSET -1.933568 0.077527 -5.2e-05
                            CHANNELS 3 Zrotation Yrotation Xrotation
                          }
                        }
                      }
                    }
                  }
                  JOINT RightHandPinky1
                  {
                    OFFSET -2.866425 -0.342796 -1.584145
                    CHANNELS 3 Zrotation Yrotation Xrotation
                    JOINT RightHandPinky2
                    {
                      OFFSET -5.091371 -1.332055 -1.772385
                      CHANNELS 3 Zrotation Yrotation Xrotation
                      JOINT RightHandPinky3
                      {
                        OFFSET -3.062664 -4e-06 1e-06
                        CHANNELS 3 Zrotation Yrotation Xrotation
                        JOINT RightHandPinky4
                        {
                          OFFSET -1.546529 4e-06 -2e-06
                          CHANNELS 3 Zrotation Yrotation Xrotation
                          JOINT RightHandPinkyEnd
                          {
                            OFFSET -1.945119 -0.157718 0.057211
                            CHANNELS 3 Zrotation Yrotation Xrotation
                          }
                        }
                      }
                    }
                  }
                }
              }
            }
          }
        }
      }
    }
    JOINT LeftLeg
    {
      OFFSET 10.043214 -8.434526 2.595655
      CHANNELS 3 Zrotation Yrotation Xrotation
      JOINT LeftShin
      {
        OFFSET -1e-06 -43.221752 -0.802913
        CHANNELS 3 Zrotation Yrotation Xrotation
        JOINT LeftFoot
        {
          OFFSET 1e-06 -42.155094 -3.481523
          CHANNELS 3 Zrotation Yrotation Xrotation
          JOINT LeftToeBase
          {
            OFFSET 0.0 -5.059472 13.231529
            CHANNELS 3 Zrotation Yrotation Xrotation
            JOINT LeftToeEnd
            {
              OFFSET -0.009607 -1.647619 6.513017
              CHANNELS 3 Zrotation Yrotation Xrotation
            }
          }
        }
      }
    }
    JOINT RightLeg
    {
      OFFSET -10.047278 -8.29526 2.620317
      CHANNELS 3 Zrotation Yrotation Xrotation
      JOINT RightShin
      {
        OFFSET 1e-06 -43.362206 -0.805556
        CHANNELS 3 Zrotation Yrotation Xrotation
        JOINT RightFoot
        {
          OFFSET 2e-06 -42.117393 -3.478398
          CHANNELS 3 Zrotation Yrotation Xrotation
          JOINT RightToeBase
          {
            OFFSET -0.0 -5.079609 13.284196
            CHANNELS 3 Zrotation Yrotation Xrotation
            JOINT RightToeEnd
            {
              OFFSET 0.009532 -1.634378 6.460591
              CHANNELS 3 Zrotation Yrotation Xrotation
            }
          }
        }
      }
    }
  }
}
MOTION
Frames: 4
Frame Time: 0.03333333333333333
0.0 0.0 0.0 0.0 -0.0 0.0 -0.623919 100.138702 4.402989 -0.063499 -0.133819 -3.482708 0.850606 -0.06246 -3.17116 -0.242473 0.337521 -6.391899 0.160779 -1.506402 14.022527 -2.346624 3.59464 3.059822 -0.693226 0.554136 -3.466737 -0.311771 -0.532329 0.64832 7.7e-05 -2.2e-05 6e-06 0.030449 -0.028306 -0.035111 0.821053 -3.725795 -10.559547 -0.764582 3.67841 -10.568895 -13.210624 -4.978283 17.497705 -59.642761 -12.089514 17.735741 -0.119922 -25.322206 0.095943 -1.136889 0.148849 -5.618748 -5.882107 9.861288 0.70259 -10.936873 -0.360576 7.156204 1e-06 8.774828 -0.0 -16.375938 18.149977 5.74919 -1.844033 2.498505 -2.507278 -10.163601 4.678945 4.621108 -20.976027 -6e-06 -1e-06 -21.22629 2.451694 -3.594001 1e-06 -5e-06 -1e-06 -1.362681 2.240797 -0.746325 -21.334915 0.584908 3.00832 -13.821215 -4e-06 -0.0 -23.887177 -0.249081 -0.839483 -60.418358 2.55635 -1.619964 -0.294025 1.679687 0.833256 -14.21821 0.093214 1.300578 -34.212051 -0.287567 0.967167 -20.033218 0.964533 1.212841 -0.0 -1e-06 0.0 -3.440389 0.788233 0.501654 -15.928189 -3.167311 2.999704 -6.338827 -2e-06 -1e-06 -18.123453 3.648181 -4.905673 -3e-06 0.0 -2e-06 12.770841 12.465576 21.461519 57.648628 18.010756 29.778778 0.369814 25.123991 0.173506 -2.11331 1.392455 -5.414494 2.243544 -5.255041 -3.180161 14.282903 -0.826598 6.952504 -1e-06 -12.690611 1e-06 16.169849 -17.907825 2.64324 1.665668 -1.955923 -2.878298 4.727804 -4.170591 4.993925 11.020536 1e-06 1e-06 12.109062 -3.735719 -2.866785 -0.0 0.0 1e-06 1.291986 -1.92855 -1.498088 14.800139 0.567466 3.865609 14.242582 -1.341738 -6.660661 19.631983 0.143924 -0.648246 50.089092 -0.66981 -6.553805 0.35303 -1.511151 -0.031938 20.222805 3.684309 2.31663 18.787289 3e-06 -1e-06 10.751636 -0.479871 1.397906 1e-06 1e-06 -0.0 3.27381 0.305946 -0.580109 21.48683 11.830379 2.266131 8.162933 1e-06 -2e-06 18.399097 -3.798988 -4.94058 3e-06 -1e-06 -1e-06 8.800207 7.534535 4.983903 -0.02807 -0.053922 2.121156 -8.585052 -5.584778 -0.329666 1.640506 -1.774679 -3.814562 -0.0 -0.0 2e-06 -4.611935 -5.526422 6.22786 -0.020083 -0.129785 1.802024 14.08389 -3.263877 -3.868585 -1.338197 1.093617 -5.429074 -0.0 0.0 -1e-06 
0.0 0.0 0.0 0.0 -0.0 0.0 -0.595786 100.157524 4.664436 -0.031569 -0.197563 -3.215331 0.814303 -0.055578 -3.136646 -0.220318 0.395408 -6.38851 0.104045 -1.468682 13.899123 -2.365012 3.658914 3.25965 -0.696765 0.499035 -3.440253 -0.36196 -0.605246 0.717892 7.7e-05 -2.3e-05 6e-06 0.026397 0.008915 -0.02976 0.813886 -3.688346 -10.546142 -0.765642 3.714632 -10.555814 -13.169645 -4.974089 17.537533 -59.633118 -12.145981 17.610754 -0.301331 -25.452175 0.10784 -1.23922 0.075104 -5.413118 -5.882109 9.86129 0.70259 -10.936873 -0.360573 7.156204 -1e-06 8.774828 1e-06 -16.378004 18.147217 5.72824 -1.844033 2.498505 -2.507278 -10.163602 4.678948 4.621109 -20.976027 -0.0 0.0 -21.226292 2.4517 -3.594004 1e-06 -6e-06 -2e-06 -1.362682 2.240799 -0.746324 -21.334917 0.584913 3.008321 -13.821217 -1e-06 -0.0 -23.887178 -0.249077 -0.839487 -60.431976 2.578866 -1.54739 -0.294025 1.679688 0.833257 -14.218212 0.093217 1.300578 -34.212055 -0.28756 0.967165 -20.033215 0.964537 1.212841 -0.0 -1e-06 0.0 -3.44039 0.788235 0.501655 -15.928189 -3.167308 2.999705 -6.338827 0.0 -1e-06 -18.123453 3.648187 -4.905676 -2e-06 0.0 -2e-06 12.876675 12.414159 21.611774 57.448006 18.097719 29.518415 0.418892 25.232697 0.199648 -2.212174 1.477123 -5.495525 2.243542 -5.255036 -3.180157 14.282896 -0.826597 6.952502 -1e-06 -12.690604 -1e-06 16.203363 -17.920427 2.591238 1.665667 -1.955922 -2.878301 4.727801 -4.170588 4.993921 11.020532 2e-06 -1e-06 12.109056 -3.735717 -2.866784 -1e-06 -0.0 2e-06 1.291986 -1.928549 -1.498087 14.800131 0.567467 3.865605 14.242576 -1.341739 -6.660657 19.631971 0.143924 -0.648246 50.191235 -0.668168 -6.590934 0.353029 -1.511151 -0.03194 20.222794 3.684308 2.316631 18.787277 4e-06 -2e-06 10.751629 -0.47987 1.397905 1e-06 0.0 -0.0 3.273807 0.305946 -0.580111 21.486816 11.830376 2.266131 8.162928 1e-06 -2e-06 18.399086 -3.798985 -4.940578 3e-06 -0.0 1e-06 8.694365 7.481691 4.830081 -0.03615 -0.099587 2.26627 -8.546818 -5.308897 -0.473741 1.643734 -1.778373 -3.896366 -0.0 0.0 2e-06 -4.608406 -5.277939 6.1375 -0.031349 -0.115102 1.783539 13.988533 -3.543342 -3.967391 -1.345366 1.075283 -5.541957 0.0 0.0 -1e-06 
0.0 0.0 0.0 0.0 -0.0 0.0 -0.519055 100.168526 4.911851 0.009678 -0.305559 -2.876367 0.776582 -0.048521 -3.11129 -0.207567 0.431284 -6.404491 0.062047 -1.400906 13.88157 -2.348077 3.721984 3.411655 -0.717787 0.415212 -3.459399 -0.42051 -0.671693 0.901308 7.7e-05 -2.2e-05 6e-06 0.024659 0.019171 -0.029899 0.812586 -3.674032 -10.556645 -0.768005 3.719861 -10.561725 -13.168561 -4.931099 17.578716 -59.568554 -12.215291 17.541025 -0.488737 -25.71146 0.124037 -1.274583 0.009249 -5.337787 -5.882111 9.861295 0.702592 -10.936878 -0.360574 7.156206 -1e-06 8.774833 -1e-06 -16.375559 18.201225 5.734311 -1.844034 2.498507 -2.507279 -10.163608 4.67895 4.621108 -20.976038 -2e-06 -2e-06 -21.226303 2.451699 -3.594006 1e-06 -7e-06 -1e-06 -1.362683 2.240799 -0.746323 -21.334929 0.584911 3.008322 -13.821221 -3e-06 1e-06 -23.887184 -0.249079 -0.839486 -60.443371 2.614028 -1.563873 -0.294025 1.679688 0.833256 -14.218217 0.093216 1.300578 -34.212074 -0.287565 0.967165 -20.033226 0.964537 1.212841 0.0 -1e-06 0.0 -3.44039 0.788234 0.501654 -15.928196 -3.167311 2.999707 -6.338832 -0.0 -0.0 -18.123463 3.648186 -4.90568 -2e-06 1e-06 -1e-06 12.996962 12.379584 21.686937 57.163269 18.218515 29.488003 0.44591 25.365932 0.204335 -2.395736 1.476956 -5.420965 2.243544 -5.255041 -3.180159 14.282902 -0.826597 6.952505 -2e-06 -12.690614 -1e-06 16.213375 -17.893749 2.563585 1.665667 -1.955923 -2.878302 4.727802 -4.170591 4.993926 11.020535 2e-06 -2e-06 12.10906 -3.735719 -2.866786 -0.0 -0.0 1e-06 1.291986 -1.92855 -1.498092 14.800139 0.567468 3.865609 14.242584 -1.341738 -6.660661 19.631985 0.143925 -0.648247 50.198826 -0.673308 -6.611768 0.35303 -1.511152 -0.03194 20.222807 3.684311 2.316631 18.787289 5e-06 -2e-06 10.751637 -0.47987 1.397907 1e-06 1e-06 -0.0 3.273809 0.305946 -0.580113 21.486828 11.830382 2.266131 8.162933 3e-06 -2e-06 18.399096 -3.798988 -4.94058 3e-06 -1e-06 -0.0 8.561275 7.415926 4.603886 -0.032243 -0.125208 2.472599 -8.474353 -5.010487 -0.694562 1.647171 -1.768186 -3.960356 -0.0 0.0 2e-06 -4.622839 -5.028977 5.953625 -0.035611 -0.106415 1.817993 13.977212 -3.821398 -4.133944 -1.348018 1.073514 -5.596331 0.0 0.0 -1e-06 
0.0 0.0 0.0 0.0 -0.0 0.0 -0.447769 100.174568 5.154002 0.020981 -0.47633 -2.46852 0.746123 -0.028323 -3.063889 -0.195213 0.473229 -6.420806 0.056408 -1.323893 13.92178 -2.34409 3.760983 3.489445 -0.745083 0.369182 -3.490398 -0.420559 -0.745936 1.069482 7.7e-05 -2.2e-05 6e-06 0.022753 0.017094 -0.033305 0.816717 -3.669424 -10.573924 -0.776141 3.710285 -10.573247 -13.225454 -4.853922 17.662777 -59.45364 -12.354044 17.591908 -0.640798 -26.022589 0.146282 -1.136302 -0.1082 -5.257617 -5.882108 9.861284 0.70259 -10.936872 -0.360575 7.156203 -0.0 8.774822 -1e-06 -16.354364 18.241919 5.759314 -1.844033 2.498504 -2.507277 -10.163599 4.678945 4.621107 -20.976023 -1e-06 -1e-06 -21.226286 2.451696 -3.594002 1e-06 -5e-06 -1e-06 -1.362681 2.240797 -0.746324 -21.334913 0.584911 3.008321 -13.821213 -3e-06 1e-06 -23.887173 -0.24908 -0.839484 -60.475929 2.639251 -1.560041 -0.294025 1.679688 0.833257 -14.218208 0.093216 1.30058 -34.212048 -0.287563 0.967167 -20.033211 0.964536 1.21284 0.0 -1e-06 0.0 -3.440389 0.788234 0.501654 -15.928185 -3.167308 2.999706 -6.338825 -1e-06 -2e-06 -18.123444 3.648182 -4.905672 -2e-06 0.0 -2e-06 13.091102 12.348344 21.731684 56.850693 18.423159 29.794317 0.387579 25.489527 0.172057 -2.589014 1.456853 -5.123833 2.243543 -5.255037 -3.180156 14.282897 -0.826595 6.952504 -3e-06 -12.69061 1e-06 16.183203 -17.845995 2.56775 1.665667 -1.955922 -2.878298 4.7278 -4.170588 4.993926 11.02053 3e-06 -0.0 12.109055 -3.735716 -2.866785 -0.0 0.0 1e-06 1.291985 -1.92855 -1.49809 14.800134 0.567468 3.865611 14.242578 -1.341736 -6.660659 19.631973 0.143925 -0.648243 50.135891 -0.694166 -6.60023 0.353029 -1.51115 -0.031938 20.222801 3.684311 2.316629 18.787283 6e-06 -1e-06 10.751633 -0.479867 1.397904 1e-06 1e-06 -0.0 3.273808 0.305948 -0.58011 21.486824 11.830379 2.266134 8.16293 2e-06 -2e-06 18.399088 -3.798985 -4.940576 3e-06 0.0 -0.0 8.441441 7.388374 4.307265 -0.025137 -0.144952 2.723926 -8.392682 -4.674373 -0.997055 1.647557 -1.760157 -4.033267 -0.0 -0.0 2e-06 -4.607601 -4.764491 5.634631 -0.041685 -0.107463 1.962355 14.017981 -4.03784 -4.332283 -1.348503 1.071314 -5.659431 0.0 0.0 -1e-06 
